# xmcd
#
# Track frame offsets: 
#        150
#        9574
#        28830
#        46223
#        61750
#        76540
#        91869
#        123029
#        145039
#        199001
#        212371
#
# Disc length: 3083 seconds
#
# Revision: 0
# Processed by: cddbd v1.5.2PL0 Copyright (c) Steve Scherf et al.
# Submitted via: ExactAudioCopy v0.99pb5
#
DISCID=7a0c090b
DTITLE=Nate Leath - I've Always Been a Rambler
DYEAR=2005
DGENRE=Bluegrass
TTITLE0=Tater Mash
TTITLE1=I've Always Been a Rambler
TTITLE2=Cherokee Shuffle
TTITLE3=Long Time Gone
TTITLE4=Sally Ann
TTITLE5=I'm on My Way Back to the Old Home
TTITLE6=Leather Britches
TTITLE7=Kentucky Waltz
TTITLE8=Cluck Old Hen
TTITLE9=One Woman Man
TTITLE10=Lauren's Lullaby
EXTD=
EXTT0=
EXTT1=
EXTT2=
EXTT3=
EXTT4=
EXTT5=
EXTT6=
EXTT7=
EXTT8=
EXTT9=
EXTT10=
PLAYORDER=
